<svg width="250" height="200" viewBox="0 0 250 200" fill="none" xmlns="http://www.w3.org/2000/svg">
<path d="M128.484 184.215C172.52 184.215 208.31 148.426 208.31 104.39C208.31 60.3539 172.52 24.5645 128.484 24.5645C84.2835 24.5645 48.6589 60.189 48.6589 104.39C48.6589 148.426 84.2835 184.215 128.484 184.215Z" fill="#373951"/>
<path d="M78.2562 82.5684H174.749C178.363 82.5684 181.616 85.6402 181.616 89.4349V150.33C181.616 153.944 178.544 157.197 174.749 157.197H78.2562C74.6422 157.197 71.3896 154.125 71.3896 150.33V89.4349C71.3896 85.6402 74.6422 82.5684 78.2562 82.5684Z" fill="#474E61"/>
<path d="M221.339 84.4332C223.813 82.1242 223.978 78.3308 221.669 75.8569C219.36 73.3829 215.567 73.218 213.093 75.527C210.619 77.836 210.454 81.6294 212.763 84.1033C214.907 86.4123 218.865 86.7422 221.339 84.4332Z" fill="#2A2E37"/>
<path d="M221.669 57.2204C222.659 56.2308 222.824 54.5816 221.834 53.592C220.844 52.6024 219.195 52.4375 218.206 53.4271C217.216 54.4166 217.051 56.0659 218.041 57.0555C219.03 58.21 220.679 58.21 221.669 57.2204Z" fill="#2A2E37"/>
<path d="M156.852 19.7815C157.512 19.1218 157.677 17.9673 157.017 17.3076C156.358 16.6478 155.203 16.4829 154.543 17.1426C153.884 17.8023 153.719 18.9568 154.378 19.6166C155.038 20.2763 156.193 20.4412 156.852 19.7815Z" fill="#2A2E37"/>
<g filter="url(#filter0_d_3049_12763)">
<path d="M216.671 50.4044L192.639 93.23C191.735 94.6755 189.928 95.2177 188.663 94.3142L147.464 70.2812C146.018 69.3777 145.476 67.5708 146.38 66.3059L178.002 11.7349C178.905 10.2893 180.712 9.7472 181.977 10.6507L211.793 27.9978L216.671 50.4044Z" fill="#5C6479"/>
</g>
<path d="M211.793 27.998L204.926 39.5628C204.022 41.3697 204.565 43.1767 206.191 44.2609L216.491 50.224" fill="#474E61"/>
<path d="M183.423 39.2012C184.146 39.0205 184.869 39.0205 185.411 39.0205C186.133 39.0205 186.856 39.0205 187.579 39.0205C188.302 39.2012 189.205 39.3819 189.928 39.5626C190.832 39.924 191.554 40.2854 192.277 40.6468C193.361 41.1889 194.265 41.9117 194.988 42.8152C195.711 43.538 196.253 44.4415 196.614 45.5257C196.975 46.4292 196.975 47.5133 196.975 48.4168C196.795 49.501 196.433 50.5852 195.891 51.4887C195.349 52.3922 194.807 53.115 194.084 53.8378C193.361 54.3799 192.819 54.7413 191.916 55.1027C191.193 55.4641 190.47 55.6448 189.747 55.6448L187.76 55.8255C187.218 55.8255 186.676 56.0062 185.953 56.1869C185.411 56.3676 185.049 56.5483 184.688 56.9097L182.7 59.4395L179.448 57.6325L180.893 54.3799C181.074 53.8378 181.616 53.2957 181.977 52.9343C182.52 52.5729 183.062 52.3922 183.604 52.2115C184.326 52.0308 184.869 52.0308 185.591 51.8501C186.314 51.8501 187.037 51.6694 187.76 51.4887C188.483 51.308 189.025 51.1273 189.747 50.7659C190.47 50.4045 190.832 49.8624 191.193 49.1396C191.374 48.7782 191.554 48.2361 191.735 47.694C191.735 47.1519 191.735 46.7905 191.554 46.4292C191.374 45.8871 191.193 45.5257 190.832 45.1643C190.47 44.8029 190.109 44.4415 189.567 44.0801C189.025 43.7187 188.302 43.3573 187.579 43.1766C187.037 42.9959 186.495 42.9959 185.953 42.9959C185.411 42.9959 185.049 42.9959 184.688 42.9959C184.507 42.9959 184.146 42.9959 183.965 42.8152C183.604 42.6345 183.242 42.0924 183.242 41.731L183.423 39.2012ZM174.207 63.0534C174.388 62.692 174.749 62.3306 175.111 61.9692C175.472 61.7885 175.834 61.4271 176.195 61.4271C177.099 61.2464 178.002 61.2464 178.725 61.7885C179.086 61.9692 179.448 62.3306 179.809 62.692C179.99 63.0534 180.17 63.4148 180.351 63.7762C180.893 65.5832 179.809 67.2095 178.002 67.7516C177.099 67.9323 176.195 67.7516 175.472 67.3902C175.111 67.2095 174.749 66.8481 174.388 66.4867C174.207 66.1253 173.846 65.7639 173.846 65.4025C173.665 65.0411 173.665 64.499 173.846 64.1376C173.846 63.7762 174.027 63.4148 174.207 63.0534Z" fill="#A9AFC3"/>
<g filter="url(#filter1_d_3049_12763)">
<path d="M62.1741 31.7927L89.6403 60.5238C90.5438 61.608 90.5438 63.0535 89.4596 63.957L61.4513 90.5197C60.3671 91.4232 58.9215 91.4232 58.018 90.339L22.9625 53.2958C22.059 52.2116 22.059 50.766 23.1432 49.8625L43.5621 30.7085L62.1741 31.7927Z" fill="#5C6479"/>
</g>
<path d="M43.3813 30.3467L50.9707 38.2974C52.0549 39.3816 53.8619 39.3816 54.9461 38.2974L61.9933 31.6116" fill="#474E61"/>
<path d="M45.5498 55.1027C45.5498 54.5606 45.7305 54.0185 45.9112 53.4764C46.0919 52.9343 46.2726 52.3923 46.4533 51.8502C46.634 51.3081 46.9954 50.766 47.3568 50.2239C47.7182 49.6818 48.2603 49.1397 48.8024 48.5976C49.5252 47.8748 50.248 47.3327 51.1515 46.9713C51.8743 46.6099 52.7777 46.4292 53.5005 46.4292C54.2233 46.4292 55.1268 46.6099 55.8496 46.7906C56.5724 47.152 57.2952 47.6941 58.018 48.2362C58.5601 48.7783 59.1022 49.5011 59.2829 50.2239C59.4636 50.766 59.6443 51.4888 59.825 52.2116C59.825 52.7536 59.825 53.4764 59.825 54.0185C59.6443 54.5606 59.6443 55.1027 59.4636 55.6448C59.4636 56.1869 59.2829 56.5483 59.2829 57.0904C59.2829 57.4518 59.2829 57.8132 59.6443 58.1746L61.0899 60.343L58.9215 62.3307L56.7531 60.343C56.3917 59.9816 56.0303 59.6202 55.8496 59.0781C55.6689 58.536 55.6689 58.1746 55.6689 57.6325C55.6689 57.0904 55.8496 56.5483 55.8496 56.0062C56.0303 55.4641 56.0303 54.922 56.0303 54.3799C56.0303 53.8378 56.0303 53.2957 55.8496 52.7537C55.6689 52.2116 55.3075 51.6695 54.9461 51.1274C54.7654 50.766 54.404 50.5853 54.0426 50.4046C53.6812 50.2239 53.3198 50.2239 52.9584 50.2239C52.5971 50.2239 52.2357 50.4046 51.8743 50.5853C51.5129 50.766 51.1515 50.9467 50.7901 51.3081C50.4287 51.6695 50.0673 52.2116 49.7059 52.573C49.5252 52.9343 49.3445 53.2957 49.1638 53.8378C48.9831 54.1992 48.9831 54.5606 48.9831 54.7413C48.9831 54.922 48.8024 55.1027 48.6217 55.2834C48.441 55.6448 47.8989 55.6448 47.5375 55.4641L45.5498 55.1027ZM62.1741 67.7516C61.9934 67.5709 61.8127 67.2095 61.632 66.8481C61.4513 66.4867 61.4513 66.1253 61.4513 65.764C61.4513 65.0412 61.8127 64.3184 62.3548 63.7763C62.5355 63.5956 62.8969 63.4149 63.2583 63.2342C63.6197 63.0535 63.9811 63.0535 64.3425 63.0535C65.4267 63.0535 66.5108 63.7763 66.8722 64.8605C67.0529 65.2219 67.0529 65.5833 67.0529 65.9447C67.0529 66.306 66.8722 66.6674 66.8722 67.0288C66.6915 67.3902 66.5108 67.5709 66.1494 67.9323C65.9687 68.113 65.6074 68.4744 65.246 68.4744C64.5232 68.6551 63.8004 68.6551 63.2583 68.4744C62.7162 68.2937 62.3548 68.113 62.1741 67.7516Z" fill="#A9AFC3"/>
<g filter="url(#filter2_d_3049_12763)">
<path d="M133.911 76.967L123.25 115.094C122.889 116.359 121.443 117.263 120.178 116.721L83.1352 105.879C81.8703 105.517 80.9668 104.072 81.5089 102.807L95.9648 53.6569C96.3262 52.392 97.7718 51.4885 99.0366 52.0306L125.961 59.9814L133.911 76.967Z" fill="#5C6479"/>
</g>
<path d="M125.964 60.0488L122.527 70.8239C122.166 72.2695 123.07 73.8957 124.515 74.2571L134.046 76.9501" fill="#474E61"/>
<path d="M105.542 74.6183C106.084 74.4376 106.626 74.2569 107.168 74.0762C107.71 73.8955 108.252 73.7148 108.975 73.7148C109.698 73.7148 110.24 73.7148 110.963 73.7148C111.686 73.7148 112.408 73.8955 113.131 74.0762C114.035 74.2569 114.938 74.799 115.661 75.3411C116.384 75.8832 116.926 76.4253 117.468 77.1481C117.829 77.8709 118.191 78.5937 118.371 79.3165C118.552 80.22 118.371 81.1235 118.191 81.8463C118.01 82.5691 117.649 83.2919 117.107 84.0147C116.745 84.5568 116.203 85.0989 115.661 85.4603C115.119 85.8217 114.577 86.183 114.035 86.3637L112.408 86.9058C112.047 87.0865 111.505 87.2672 111.143 87.4479C110.782 87.6286 110.421 87.99 110.421 88.3514L109.336 90.7005L106.445 89.4356L106.987 86.5445C106.987 86.0024 107.349 85.641 107.71 85.2796C108.072 84.9182 108.433 84.5568 108.975 84.3761C109.517 84.1954 110.059 84.0147 110.421 83.834C110.963 83.6533 111.505 83.4726 112.047 83.1112C112.589 82.9305 112.95 82.5691 113.493 82.2077C113.854 81.8463 114.215 81.3042 114.396 80.5814C114.396 80.4007 114.396 80.0393 114.396 79.6779C114.396 79.3165 114.215 78.9551 114.035 78.5937C113.854 78.2323 113.493 78.0516 113.131 77.6902C112.77 77.5095 112.408 77.3288 111.866 77.1481C111.324 76.9674 110.782 76.9674 110.059 76.9674C109.698 76.9674 109.156 76.9674 108.794 77.1481C108.433 77.1481 108.072 77.3288 107.891 77.3288C107.71 77.3288 107.529 77.5095 107.168 77.3288C106.807 77.3288 106.445 76.9674 106.445 76.606L105.542 74.6183ZM102.831 95.3987C103.012 95.0373 103.012 94.6759 103.373 94.4952C103.554 94.1338 103.916 93.9531 104.096 93.7724C104.819 93.411 105.542 93.411 106.084 93.5917C106.445 93.7724 106.807 93.9531 106.987 94.1338C107.168 94.3145 107.529 94.6759 107.71 94.8566C108.433 96.1215 107.891 97.7478 106.626 98.2899C105.903 98.6513 105.18 98.6513 104.638 98.4706C104.277 98.2899 103.916 98.2899 103.735 97.9285C103.373 97.7478 103.193 97.3864 103.012 97.2057C102.831 96.8443 102.831 96.6636 102.651 96.3022C102.831 96.1215 102.831 95.7601 102.831 95.3987Z" fill="#A9AFC3"/>
<g filter="url(#filter3_d_3049_12763)">
<path d="M221.008 142.199L185.953 161.172C184.869 161.714 183.242 161.353 182.7 160.088L165.172 125.936C164.63 124.851 164.992 123.225 166.257 122.683L211.793 98.6502C212.877 98.1081 214.503 98.4695 215.045 99.7344L227.694 124.49L221.008 142.199Z" fill="#5C6479"/>
</g>
<path d="M227.513 124.853L217.755 129.912C216.491 130.635 215.948 132.442 216.491 133.707L220.827 142.38" fill="#474E61"/>
<path d="M203.3 120.154C203.842 120.335 204.203 120.696 204.745 120.877C205.287 121.057 205.649 121.419 206.191 121.961C206.733 122.503 207.094 122.864 207.456 123.406C207.998 123.948 208.359 124.491 208.721 125.213C209.263 125.936 209.443 127.02 209.443 127.743C209.624 128.647 209.443 129.369 209.443 130.273C209.263 130.996 208.901 131.719 208.54 132.441C207.998 133.164 207.275 133.706 206.552 134.068C206.01 134.429 205.107 134.61 204.384 134.79C203.842 134.971 202.938 134.971 202.396 134.79C201.854 134.61 201.131 134.61 200.589 134.248L199.144 133.526C198.782 133.345 198.24 133.164 197.879 132.983C197.517 132.803 196.975 132.803 196.794 133.164L194.445 134.068L193.18 131.357L195.53 129.731C195.891 129.369 196.433 129.369 196.975 129.369C197.517 129.369 197.879 129.369 198.421 129.55C198.963 129.731 199.324 130.092 199.686 130.273C200.228 130.454 200.589 130.815 201.312 130.996C201.854 131.176 202.215 131.176 202.938 131.357C203.48 131.357 204.022 131.176 204.745 130.815C205.287 130.454 206.01 129.912 206.01 129.008C206.191 128.647 206.01 128.285 206.01 127.743C205.829 127.382 205.829 127.02 205.468 126.478C205.287 125.936 204.926 125.575 204.564 125.033C204.384 124.852 204.022 124.491 203.661 124.31C203.48 124.129 203.119 123.948 202.938 123.768C202.757 123.587 202.577 123.587 202.396 123.226C202.215 123.045 202.215 122.503 202.396 122.322L203.3 120.154ZM186.495 132.622C186.856 132.441 187.037 132.261 187.579 132.441C187.94 132.261 188.302 132.441 188.482 132.441C189.205 132.622 189.747 133.164 189.928 133.706C190.109 134.068 190.109 134.429 190.109 134.79C190.109 134.971 190.109 135.513 190.109 135.694C189.928 136.236 189.386 136.959 188.844 137.139C188.482 137.32 188.121 137.32 187.76 137.32C187.579 137.32 187.037 137.32 186.856 137.32C186.133 137.139 185.591 136.597 185.41 136.055C185.23 135.694 185.23 135.332 185.23 134.971C185.049 134.61 185.23 134.248 185.23 134.068C185.41 133.706 185.591 133.526 185.591 133.164C185.772 132.983 186.314 132.983 186.495 132.622Z" fill="#A9AFC3"/>
<path d="M183.423 121.781V151.777C183.423 155.571 180.17 158.824 176.376 158.824H77.172C73.3773 158.824 70.1248 155.571 70.1248 151.777V119.251" stroke="#1676EE" stroke-width="3" stroke-linecap="round" stroke-linejoin="round"/>
<path d="M179.628 102.446H145.657C142.404 102.446 139.152 103.53 136.622 105.698L127.587 112.926C125.057 114.914 121.805 116.179 118.552 116.179H79.8827C76.088 116.179 72.8354 119.251 72.8354 123.226C72.8354 123.588 72.8354 123.949 73.0161 124.31L80.0634 161.354C80.6055 164.787 83.6774 167.497 87.1106 167.497H169.69C173.304 167.497 176.195 164.968 176.737 161.534L186.676 110.577C187.218 106.783 184.688 103.169 180.713 102.626C180.351 102.446 179.99 102.446 179.628 102.446Z" fill="white"/>
<g filter="url(#filter4_d_3049_12763)">
<path d="M189.025 95.7603H148.548C144.754 95.7603 140.778 97.2058 137.887 99.5549L127.045 108.409C123.973 110.939 120.178 112.204 116.384 112.204H69.9443C65.4268 112.204 61.4514 115.818 61.4514 120.697C61.4514 121.058 61.4514 121.6 61.6321 121.962L70.125 166.956C70.8477 171.112 74.281 174.364 78.6178 174.364H177.099C181.255 174.364 184.869 171.292 185.591 167.136L197.337 105.518C198.06 101.001 194.988 96.483 190.29 95.7603C189.928 95.7603 189.386 95.7603 189.025 95.7603Z" fill="url(#paint0_linear_3049_12763)"/>
</g>
<path d="M110.963 143.102C113.312 143.102 115.3 141.115 115.3 138.765C115.3 136.416 113.312 134.429 110.963 134.429C108.614 134.429 106.626 136.416 106.626 138.765C106.626 141.115 108.614 143.102 110.963 143.102Z" fill="#A9AFC4"/>
<path d="M144.754 142.381C147.103 142.381 149.09 140.393 149.09 138.044C149.09 135.695 147.103 133.707 144.754 133.707C142.404 133.707 140.417 135.695 140.417 138.044C140.417 140.393 142.404 142.381 144.754 142.381Z" fill="#A9AFC4"/>
<path d="M136.983 149.608H134.634C132.647 145.632 127.768 144.006 123.973 146.174C122.347 146.897 121.082 148.343 120.54 149.608H118.191C120.178 144.367 126.141 141.657 131.201 143.645C133.911 144.729 135.899 146.897 136.983 149.608Z" fill="#A9AFC4"/>
<path d="M205.468 189C203.48 189 204.203 189.18 188.844 173.821C174.026 184.844 153.427 174.182 153.427 156.113C153.427 144.006 163.365 134.067 175.472 134.067C193 134.067 203.842 153.764 193.542 168.762L207.817 183.037C210.166 185.205 208.721 189 205.468 189ZM175.653 141.115C167.341 141.115 160.474 147.8 160.474 156.293C160.474 164.786 167.16 171.472 175.653 171.472C176.556 171.472 177.46 171.472 178.363 171.291C179.267 171.111 180.17 170.93 180.893 170.569C181.796 170.207 182.519 169.846 183.242 169.484C184.146 168.942 184.868 168.4 185.591 167.677C186.133 167.135 186.856 166.412 187.398 165.87C187.94 165.148 188.482 164.425 188.844 163.702C189.205 162.979 189.566 162.076 189.928 161.172C190.289 160.269 190.47 159.365 190.47 158.462C190.47 157.739 190.651 157.197 190.651 156.474C190.831 147.8 183.965 141.115 175.653 141.115Z" fill="#A9AFC4"/>
<path d="M100.302 131.358L110.059 126.118" stroke="#989FB0" stroke-width="1.5" stroke-miterlimit="10"/>
<path d="M153.246 128.827L143.489 123.406" stroke="#989FB0" stroke-width="1.5" stroke-miterlimit="10"/>
<defs>
<filter id="filter0_d_3049_12763" x="123.938" y="-0.791016" width="114.733" height="128.547" filterUnits="userSpaceOnUse" color-interpolation-filters="sRGB">
<feFlood flood-opacity="0" result="BackgroundImageFix"/>
<feColorMatrix in="SourceAlpha" type="matrix" values="0 0 0 0 0 0 0 0 0 0 0 0 0 0 0 0 0 0 127 0" result="hardAlpha"/>
<feOffset dy="11"/>
<feGaussianBlur stdDeviation="11"/>
<feColorMatrix type="matrix" values="0 0 0 0 0 0 0 0 0 0 0 0 0 0 0 0 0 0 0.27 0"/>
<feBlend mode="normal" in2="BackgroundImageFix" result="effect1_dropShadow_3049_12763"/>
<feBlend mode="normal" in="SourceGraphic" in2="effect1_dropShadow_3049_12763" result="shape"/>
</filter>
<filter id="filter1_d_3049_12763" x="0.305908" y="19.7085" width="111.991" height="104.468" filterUnits="userSpaceOnUse" color-interpolation-filters="sRGB">
<feFlood flood-opacity="0" result="BackgroundImageFix"/>
<feColorMatrix in="SourceAlpha" type="matrix" values="0 0 0 0 0 0 0 0 0 0 0 0 0 0 0 0 0 0 127 0" result="hardAlpha"/>
<feOffset dy="11"/>
<feGaussianBlur stdDeviation="11"/>
<feColorMatrix type="matrix" values="0 0 0 0 0 0 0 0 0 0 0 0 0 0 0 0 0 0 0.27 0"/>
<feBlend mode="normal" in2="BackgroundImageFix" result="effect1_dropShadow_3049_12763"/>
<feBlend mode="normal" in="SourceGraphic" in2="effect1_dropShadow_3049_12763" result="shape"/>
</filter>
<filter id="filter2_d_3049_12763" x="59.3484" y="40.8701" width="96.563" height="109.011" filterUnits="userSpaceOnUse" color-interpolation-filters="sRGB">
<feFlood flood-opacity="0" result="BackgroundImageFix"/>
<feColorMatrix in="SourceAlpha" type="matrix" values="0 0 0 0 0 0 0 0 0 0 0 0 0 0 0 0 0 0 127 0" result="hardAlpha"/>
<feOffset dy="11"/>
<feGaussianBlur stdDeviation="11"/>
<feColorMatrix type="matrix" values="0 0 0 0 0 0 0 0 0 0 0 0 0 0 0 0 0 0 0.27 0"/>
<feBlend mode="normal" in2="BackgroundImageFix" result="effect1_dropShadow_3049_12763"/>
<feBlend mode="normal" in="SourceGraphic" in2="effect1_dropShadow_3049_12763" result="shape"/>
</filter>
<filter id="filter3_d_3049_12763" x="142.928" y="87.4062" width="106.766" height="107.01" filterUnits="userSpaceOnUse" color-interpolation-filters="sRGB">
<feFlood flood-opacity="0" result="BackgroundImageFix"/>
<feColorMatrix in="SourceAlpha" type="matrix" values="0 0 0 0 0 0 0 0 0 0 0 0 0 0 0 0 0 0 127 0" result="hardAlpha"/>
<feOffset dy="11"/>
<feGaussianBlur stdDeviation="11"/>
<feColorMatrix type="matrix" values="0 0 0 0 0 0 0 0 0 0 0 0 0 0 0 0 0 0 0.27 0"/>
<feBlend mode="normal" in2="BackgroundImageFix" result="effect1_dropShadow_3049_12763"/>
<feBlend mode="normal" in="SourceGraphic" in2="effect1_dropShadow_3049_12763" result="shape"/>
</filter>
<filter id="filter4_d_3049_12763" x="39.4514" y="84.7603" width="179.991" height="122.604" filterUnits="userSpaceOnUse" color-interpolation-filters="sRGB">
<feFlood flood-opacity="0" result="BackgroundImageFix"/>
<feColorMatrix in="SourceAlpha" type="matrix" values="0 0 0 0 0 0 0 0 0 0 0 0 0 0 0 0 0 0 127 0" result="hardAlpha"/>
<feOffset dy="11"/>
<feGaussianBlur stdDeviation="11"/>
<feColorMatrix type="matrix" values="0 0 0 0 0 0 0 0 0 0 0 0 0 0 0 0 0 0 0.27 0"/>
<feBlend mode="normal" in2="BackgroundImageFix" result="effect1_dropShadow_3049_12763"/>
<feBlend mode="normal" in="SourceGraphic" in2="effect1_dropShadow_3049_12763" result="shape"/>
</filter>
<linearGradient id="paint0_linear_3049_12763" x1="129.402" y1="93.9421" x2="129.402" y2="175.212" gradientUnits="userSpaceOnUse">
<stop stop-color="#5C6479"/>
<stop offset="0.9964" stop-color="#5C6479"/>
</linearGradient>
</defs>
</svg>
