<svg width="25" height="24" viewBox="0 0 25 24" fill="none" xmlns="http://www.w3.org/2000/svg">
<path d="M3.68082 1.99906C3.12852 1.99456 2.68532 2.44686 2.68082 2.99906C2.67632 3.55136 3.12852 3.99456 3.68082 3.99906C4.41842 4.00506 4.98702 4.50976 5.46202 5.43656C5.84202 6.17776 6.00993 7.03436 6.02463 7.12406L7.21202 13.8111C7.57202 15.6131 9.30403 16.9991 11.1188 16.9991H19.6808C20.2328 16.9991 20.6808 16.5511 20.6808 15.9991C20.6808 15.4471 20.2328 14.9991 19.6808 14.9991H11.1188C10.2573 14.9991 9.34973 14.2811 9.18083 13.4371L9.11833 12.9991H18.6808C20.1568 12.9991 21.4618 11.6101 21.6808 10.1551L22.6498 5.18656C22.7738 4.56776 22.3118 3.99916 21.6808 3.99906H6.96202C6.20102 2.83676 5.06412 2.01026 3.68082 1.99906ZM7.83702 5.99906H20.4618L19.7118 9.81156C19.6198 10.4151 19.0588 10.9991 18.6808 10.9991H8.74333L8.02463 6.81156C7.99173 6.61126 7.92682 6.30246 7.83702 5.99906ZM10.1808 18.9991C9.35243 18.9991 8.68083 19.6711 8.68083 20.4991C8.68083 21.3271 9.35243 21.9991 10.1808 21.9991C11.0088 21.9991 11.6808 21.3271 11.6808 20.4991C11.6808 19.6711 11.0088 18.9991 10.1808 18.9991ZM18.1808 18.9991C17.3528 18.9991 16.6808 19.6711 16.6808 20.4991C16.6808 21.3271 17.3528 21.9991 18.1808 21.9991C19.0088 21.9991 19.6808 21.3271 19.6808 20.4991C19.6808 19.6711 19.0088 18.9991 18.1808 18.9991Z" fill="white"/>
</svg>
