<svg width="18" height="17" viewBox="0 0 18 17" fill="none" xmlns="http://www.w3.org/2000/svg">
<path d="M1.99434 0.90625C1.73844 0.90625 1.47084 0.992256 1.27554 1.18726C0.885041 1.57826 0.885041 2.23424 1.27554 2.62524L7.55684 8.90625L1.27554 15.1873C0.885041 15.5783 0.885041 16.2342 1.27554 16.6252C1.66614 17.0152 2.32254 17.0152 2.71314 16.6252L8.99434 10.3443L15.2755 16.6252C15.6661 17.0152 16.3225 17.0152 16.7131 16.6252C17.1036 16.2342 17.1036 15.5783 16.7131 15.1873L10.4318 8.90625L16.7131 2.62524C17.1036 2.23424 17.1036 1.57826 16.7131 1.18726C16.5178 0.992256 16.2501 0.90625 15.9943 0.90625C15.7384 0.90625 15.4709 0.992256 15.2755 1.18726L8.99434 7.46825L2.71314 1.18726C2.51784 0.992256 2.25024 0.90625 1.99434 0.90625Z" fill="white"/>
</svg>
