<svg width="24" height="24" viewBox="0 0 24 24" fill="none" xmlns="http://www.w3.org/2000/svg">
<path d="M9.02832 1.99902C7.37132 1.99902 6.02832 3.34212 6.02832 4.99902V19.999H5.02832C4.47632 19.999 4.02832 20.4467 4.02832 20.999C4.02832 21.5513 4.47632 21.999 5.02832 21.999H7.02832H17.0283H19.0283C19.5803 21.999 20.0283 21.5513 20.0283 20.999C20.0283 20.4467 19.5803 19.999 19.0283 19.999H18.0283V4.99902C18.0283 3.34212 16.6853 1.99902 15.0283 1.99902H9.02832ZM9.02832 3.99902H15.0283C15.5803 3.99902 16.0283 4.44672 16.0283 4.99902V19.999H8.02832V4.99902C8.02832 4.44672 8.47632 3.99902 9.02832 3.99902ZM14.0283 10.999C13.4763 10.999 13.0283 11.4467 13.0283 11.999C13.0283 12.5513 13.4763 12.999 14.0283 12.999C14.5803 12.999 15.0283 12.5513 15.0283 11.999C15.0283 11.4467 14.5803 10.999 14.0283 10.999Z" fill="white"/>
</svg>
