<svg width="432" height="24" viewBox="0 0 432 24" fill="none" xmlns="http://www.w3.org/2000/svg">
<rect y="10" width="198" height="4" rx="2" fill="white" fill-opacity="0.1"/>
<path d="M212.928 18.1761C212.109 18.1761 211.395 17.9886 210.786 17.6136C210.176 17.2386 209.702 16.714 209.365 16.0398C209.028 15.3655 208.859 14.5777 208.859 13.6761C208.859 12.7708 209.028 11.9792 209.365 11.3011C209.702 10.6231 210.176 10.0966 210.786 9.72159C211.395 9.34659 212.109 9.15909 212.928 9.15909C213.746 9.15909 214.46 9.34659 215.07 9.72159C215.679 10.0966 216.153 10.6231 216.49 11.3011C216.827 11.9792 216.996 12.7708 216.996 13.6761C216.996 14.5777 216.827 15.3655 216.49 16.0398C216.153 16.714 215.679 17.2386 215.07 17.6136C214.46 17.9886 213.746 18.1761 212.928 18.1761ZM212.933 16.75C213.464 16.75 213.903 16.6098 214.251 16.3295C214.6 16.0492 214.857 15.6761 215.024 15.2102C215.195 14.7443 215.28 14.2311 215.28 13.6705C215.28 13.1136 215.195 12.6023 215.024 12.1364C214.857 11.6667 214.6 11.2898 214.251 11.0057C213.903 10.7216 213.464 10.5795 212.933 10.5795C212.399 10.5795 211.956 10.7216 211.604 11.0057C211.255 11.2898 210.996 11.6667 210.825 12.1364C210.659 12.6023 210.575 13.1136 210.575 13.6705C210.575 14.2311 210.659 14.7443 210.825 15.2102C210.996 15.6761 211.255 16.0492 211.604 16.3295C211.956 16.6098 212.399 16.75 212.933 16.75ZM218.892 18V9.27273H220.534V10.6591H220.625C220.784 10.1894 221.064 9.82008 221.466 9.55114C221.871 9.27841 222.33 9.14205 222.841 9.14205C222.947 9.14205 223.072 9.14583 223.216 9.15341C223.364 9.16098 223.479 9.17045 223.562 9.18182V10.8068C223.494 10.7879 223.373 10.767 223.199 10.7443C223.025 10.7178 222.85 10.7045 222.676 10.7045C222.275 10.7045 221.917 10.7898 221.602 10.9602C221.292 11.1269 221.045 11.3598 220.864 11.6591C220.682 11.9545 220.591 12.2917 220.591 12.6705V18H218.892Z" fill="white" fill-opacity="0.8"/>
<rect x="234" y="10" width="198" height="4" rx="2" fill="white" fill-opacity="0.1"/>
</svg>
