<svg width="25" height="24" viewBox="0 0 25 24" fill="none" xmlns="http://www.w3.org/2000/svg">
<path d="M7.9989 2.99072C4.9613 2.99072 2.4989 5.45273 2.4989 8.49073C2.4989 11.6747 4.3124 14.6787 7.3114 17.4287C8.335 18.3667 9.4371 19.1897 10.5301 19.9287C10.9132 20.1867 11.2715 20.4208 11.5927 20.6158C11.7885 20.7348 11.9176 20.8208 11.9989 20.8658C12.3009 21.0338 12.6969 21.0338 12.9989 20.8658C13.0802 20.8208 13.2093 20.7348 13.4051 20.6158C13.7263 20.4208 14.0846 20.1867 14.4677 19.9287C15.5607 19.1897 16.6628 18.3667 17.6864 17.4287C20.6854 14.6787 22.4989 11.6747 22.4989 8.49073C22.4989 5.45273 20.0365 2.99072 16.9989 2.99072C15.2737 2.99072 13.5893 3.93074 12.5301 5.30274C11.4973 3.90674 9.8188 2.99072 7.9989 2.99072ZM7.9989 4.99073C9.2128 4.99073 10.3464 5.60674 10.9989 6.55274C11.0623 6.64474 11.5622 7.37974 11.6551 7.52174C12.042 8.11474 12.9052 8.13275 13.3114 7.55274C13.4102 7.41174 13.9305 6.67972 13.9989 6.58472C14.68 5.63272 15.8721 4.99073 16.9989 4.99073C18.9319 4.99073 20.4989 6.55773 20.4989 8.49073C20.4989 10.9937 18.9374 13.5207 16.3114 15.9287C15.3662 16.7947 14.359 17.5848 13.3427 18.2718C13.0354 18.4798 12.7613 18.6418 12.4989 18.8028C12.2365 18.6418 11.9624 18.4798 11.6551 18.2718C10.6388 17.5848 9.6316 16.7947 8.6864 15.9287C6.0604 13.5207 4.4989 10.9937 4.4989 8.49073C4.4989 6.55773 6.0659 4.99073 7.9989 4.99073Z" fill="white"/>
</svg>
