<svg width="21" height="20" viewBox="0 0 21 20" fill="none" xmlns="http://www.w3.org/2000/svg">
<path d="M10.9233 0.197515C9.90634 0.185515 8.91094 0.52152 8.20434 1.22852L1.26685 8.32153C0.968447 8.62653 0.888547 9.06551 1.07935 9.44751L1.98554 11.2595L1.95435 16.9785C1.95425 18.1095 2.86054 19.0095 3.98554 19.0095H8.17304C9.17034 19.0095 9.98534 18.1945 9.98534 17.1975V12.8845C9.98534 12.4005 10.3763 12.0095 10.8603 12.0095H11.1103C11.5943 12.0095 11.9853 12.4005 11.9853 12.8845V17.1975C11.9853 18.1945 12.8003 19.0095 13.7983 19.0095H17.9853C19.1103 19.0095 20.0163 18.1035 20.0163 16.9785L19.9853 11.2595L20.8913 9.44751C21.0843 9.06251 21.0083 8.59553 20.7043 8.29053C20.4443 8.03053 14.3293 1.91553 13.7043 1.29053C12.9793 0.565532 11.9393 0.208515 10.9233 0.197515ZM10.9233 2.19751C11.4263 2.20751 11.9283 2.39052 12.2663 2.72852C12.8473 3.30852 17.8023 8.26352 18.7663 9.22852L18.0793 10.5715C18.0093 10.7125 17.9843 10.8525 17.9853 11.0095L18.0163 16.9785C18.0163 16.9925 18.0063 17.0095 17.9853 17.0095H13.9853V12.8845C13.9853 11.2955 12.6993 10.0095 11.1103 10.0095H10.8603C9.27134 10.0095 7.98554 11.2955 7.98554 12.8845V17.0095H3.98554C3.96514 17.0095 3.95434 16.9985 3.95434 16.9785L3.98554 11.0095C3.98654 10.8525 3.96214 10.7125 3.89184 10.5715L3.20435 9.19751L9.61034 2.63453C9.91934 2.32553 10.4193 2.18651 10.9233 2.19751Z" fill="white"/>
</svg>
