<svg width="24" height="24" viewBox="0 0 24 24" fill="none" xmlns="http://www.w3.org/2000/svg">
<path d="M11.9233 2.19758C10.9063 2.18558 9.91095 2.52158 9.20435 3.22858L2.26685 10.3216C1.96845 10.6266 1.88855 11.0656 2.07935 11.4476L2.98554 13.2596L2.95435 18.9786C2.95425 20.1096 3.86054 21.0096 4.98554 21.0096H9.17304C10.1703 21.0096 10.9853 20.1946 10.9853 19.1976V14.8846C10.9853 14.4006 11.3763 14.0096 11.8603 14.0096H12.1103C12.5943 14.0096 12.9853 14.4006 12.9853 14.8846V19.1976C12.9853 20.1946 13.8003 21.0096 14.7983 21.0096H18.9853C20.1103 21.0096 21.0163 20.1036 21.0163 18.9786L20.9853 13.2596L21.8913 11.4476C22.0843 11.0626 22.0083 10.5956 21.7043 10.2906C21.4443 10.0306 15.3293 3.91559 14.7043 3.29059C13.9793 2.56559 12.9393 2.20858 11.9233 2.19758ZM11.9233 4.19758C12.4263 4.20758 12.9283 4.39058 13.2663 4.72858C13.8473 5.30858 18.8023 10.2636 19.7663 11.2286L19.0793 12.5716C19.0093 12.7126 18.9843 12.8526 18.9853 13.0096L19.0163 18.9786C19.0163 18.9926 19.0063 19.0096 18.9853 19.0096H14.9853V14.8846C14.9853 13.2956 13.6993 12.0096 12.1103 12.0096H11.8603C10.2713 12.0096 8.98554 13.2956 8.98554 14.8846V19.0096H4.98554C4.96514 19.0096 4.95435 18.9986 4.95435 18.9786L4.98554 13.0096C4.98654 12.8526 4.96215 12.7126 4.89185 12.5716L4.20435 11.1976L10.6103 4.63459C10.9193 4.32559 11.4193 4.18658 11.9233 4.19758Z" fill="white"/>
</svg>
