<svg width="21" height="21" viewBox="0 0 21 21" fill="none" xmlns="http://www.w3.org/2000/svg">
<path d="M10.499 0.953125C4.97596 0.953125 0.517961 5.43012 0.498961 10.9531C0.479961 16.4681 4.98096 20.9731 10.499 20.9841C16.0169 20.9951 20.5089 16.4291 20.4989 10.9531C20.4889 5.43012 16.0219 0.953125 10.499 0.953125ZM10.499 2.95312C14.917 2.95312 18.4989 6.53512 18.4989 10.9531C18.4989 13.2031 17.5619 15.2311 16.0669 16.6851C15.3299 15.0921 13.749 13.9531 11.936 13.9531C11.577 13.9531 9.42097 13.9531 9.06097 13.9531C7.25097 13.9531 5.67297 15.0781 4.93597 16.6721C3.44197 15.2181 2.49896 13.2031 2.49896 10.9531C2.49896 6.53512 6.08096 2.95312 10.499 2.95312ZM10.499 4.95312C8.28996 4.95312 6.49896 6.74412 6.49896 8.95312C6.49896 11.1621 8.28996 12.9531 10.499 12.9531C12.708 12.9531 14.499 11.1621 14.499 8.95312C14.499 6.74412 12.708 4.95312 10.499 4.95312ZM10.499 6.95312C11.604 6.95312 12.499 7.84812 12.499 8.95312C12.499 10.0581 11.604 10.9531 10.499 10.9531C9.39395 10.9531 8.49895 10.0581 8.49895 8.95312C8.49895 7.84812 9.39395 6.95312 10.499 6.95312ZM9.06097 15.9531C9.42097 15.9531 11.577 15.9531 11.936 15.9531C13.052 15.9531 14.0619 16.7671 14.4159 17.9141C12.9879 18.7571 11.393 18.9531 10.499 18.9531C9.58095 18.9531 8.05796 18.7471 6.59396 17.9401C6.94496 16.7831 7.95497 15.9531 9.06097 15.9531Z" fill="white"/>
</svg>
