<svg width="25" height="24" viewBox="0 0 25 24" fill="none" xmlns="http://www.w3.org/2000/svg">
<path d="M10.5142 1.95312C6.09586 1.95312 2.51416 5.53513 2.51416 9.95314C2.51416 14.3712 6.09586 17.9532 10.5142 17.9532C12.3509 17.9532 14.0918 17.3222 15.4421 16.2822L19.7954 20.6722C20.186 21.0622 20.8424 21.0622 21.233 20.6722C21.6235 20.2812 21.6235 19.6252 21.233 19.2342L16.8495 14.8741C17.8903 13.5241 18.5142 11.7901 18.5142 9.95314C18.5142 5.53513 14.9325 1.95312 10.5142 1.95312ZM10.5142 3.95313C13.8279 3.95313 16.5142 6.63914 16.5142 9.95314C16.5142 13.2672 13.8279 15.9532 10.5142 15.9532C7.20046 15.9532 4.51416 13.2672 4.51416 9.95314C4.51416 6.63914 7.20046 3.95313 10.5142 3.95313Z" fill="white"/>
</svg>
