<svg width="217" height="160" viewBox="0 0 217 160" fill="none" xmlns="http://www.w3.org/2000/svg">
<g filter="url(#filter0_d_3250_8613)">
<path d="M124.279 47.7618L106.243 71.0856C105.677 71.9354 104.544 72.0299 103.694 71.3689L81.2198 53.7108C80.3699 53.1442 80.2755 52.0111 80.9365 51.1612L104.355 21.4163C104.921 20.5664 106.054 20.472 106.904 21.133L123.24 33.9753L124.279 47.7618Z" fill="#5C6479"/>
</g>
<path d="M116.63 36.5248L105.771 28.0262C105.582 27.8374 105.488 27.5541 105.677 27.1764C105.866 26.9875 106.149 26.8931 106.527 27.0819L117.386 35.5805C117.575 35.7694 117.669 36.0526 117.48 36.4304C117.197 36.7136 116.914 36.7136 116.63 36.5248Z" fill="#2E3746"/>
<path d="M107.943 33.8809L103.883 30.5759C103.694 30.387 103.599 30.1038 103.788 29.7261C103.977 29.4428 104.26 29.4428 104.638 29.6316L108.698 32.9366C108.887 33.1255 108.982 33.4088 108.793 33.7865C108.51 34.0698 108.132 34.0698 107.943 33.8809Z" fill="#2E3746"/>
<path d="M123.24 33.9756L118.236 40.3023C117.48 41.2466 117.763 42.5686 118.613 43.2296L124.373 47.7621" fill="#2E3746"/>
<path d="M117.291 49.1786L111.626 44.8349L105.771 40.2079L100.389 35.9587C99.8221 35.4865 98.8778 35.5809 98.4057 36.2419L90.6625 46.0625C90.1904 46.6291 90.2848 47.5733 90.8514 48.0455L107.848 61.4543C108.415 61.9265 109.359 61.832 109.831 61.171L117.575 51.3505C118.047 50.5006 117.952 49.7452 117.291 49.1786ZM99.3499 49.0842L101.05 46.8179L106.243 50.8783L104.543 53.1446L99.3499 49.0842ZM104.071 53.8056L102.466 55.883L97.2725 51.8226L98.8778 49.7452L104.071 53.8056ZM108.509 48.0455L106.81 50.3118L101.616 46.2514L103.316 43.9851L108.509 48.0455ZM103.788 43.3241L105.677 41.0578L110.87 45.1182L109.17 47.3845L103.788 43.3241ZM113.231 55.3165L107.471 50.7839L109.17 48.5176L114.931 53.0502L113.231 55.3165ZM100.955 45.6848L95.3839 41.3411L97.0837 39.0748L102.655 43.4185L100.955 45.6848ZM94.8174 42.0021L100.389 46.3458L98.6889 48.6121L93.1177 44.2684L94.8174 42.0021ZM106.999 51.4449L112.759 55.9775L111.059 58.2437L105.299 53.7112L106.999 51.4449ZM116.914 50.6895L115.497 52.4836L109.737 47.9511L111.437 45.6848L116.725 49.8396C117.102 50.0285 117.102 50.4062 116.914 50.6895ZM99.8221 36.4308L104.921 40.4912L103.221 42.7575L97.6502 38.4138L99.0666 36.6197C99.2555 36.3364 99.6332 36.3364 99.8221 36.4308ZM91.3235 46.4402L92.5511 44.9294L98.1224 49.2731L96.5171 51.3505L91.3235 47.2901C91.1347 47.1012 91.1347 46.6291 91.3235 46.4402ZM108.415 60.51L103.127 56.3552L104.732 54.2778L110.492 58.8103L109.17 60.4156C108.982 60.7933 108.604 60.7933 108.415 60.51Z" fill="#2E3746"/>
<path d="M168.232 62.6626H66.5267C64.435 62.6626 62.6049 64.4934 62.6049 66.5857V132.232C62.6049 134.324 64.435 133.539 66.5267 133.539H167.971C170.062 133.539 171.893 134.324 171.893 132.232V66.5857C172.154 64.4934 170.324 62.6626 168.232 62.6626Z" fill="#262A31"/>
<path d="M164.814 66.4775H70.1644C68.2179 66.4775 66.5146 68.1165 66.5146 69.9896V128.759C66.5146 130.632 68.2179 129.929 70.1644 129.929H164.571C166.518 129.929 168.221 130.632 168.221 128.759V69.9896C168.464 68.1165 166.761 66.4775 164.814 66.4775Z" fill="#474E61"/>
<path d="M187.318 129.878V131.97C187.318 134.324 185.227 136.416 182.874 136.416H51.8851C49.5321 136.416 47.4404 134.324 47.4404 131.97V129.878H187.318Z" fill="#353B4A"/>
<path d="M129.537 129.878V130.663C129.537 131.97 128.491 133.278 126.922 133.278H107.575C106.267 133.278 104.96 132.232 104.96 130.663V129.878H129.537Z" fill="#262A31"/>
<path d="M127.707 96.9244H119.079V88.2937C119.079 87.2475 118.294 86.4629 117.249 86.4629C116.203 86.4629 115.418 87.2475 115.418 88.2937V96.9244H106.791C105.745 96.9244 104.96 97.709 104.96 98.7552C104.96 99.8013 105.745 100.586 106.791 100.586H115.418V109.217C115.418 110.263 116.203 111.047 117.249 111.047C118.294 111.047 119.079 110.263 119.079 109.217V100.586H127.707C128.753 100.586 129.537 99.8013 129.537 98.7552C129.537 97.709 128.753 96.9244 127.707 96.9244Z" fill="#8E96AB"/>
<g filter="url(#filter1_d_3250_8613)">
<path d="M187.064 96.0155L158.14 111.673C156.468 112.568 154.393 111.963 153.48 110.287L138.532 82.5921C137.638 80.9185 138.243 78.8417 139.918 77.9269L168.841 62.2695C170.513 61.3741 172.588 61.9794 173.501 63.6551L188.468 91.3525C189.362 93.0261 188.735 95.1201 187.064 96.0155Z" fill="url(#paint0_linear_3250_8613)"/>
</g>
<path d="M183.225 92.7348L157.794 106.5C157.082 106.893 156.189 106.616 155.797 105.903L143.438 83.0022C143.046 82.2896 143.323 81.3959 144.035 81.0032L169.466 67.2379C170.178 66.8452 171.071 67.1219 171.463 67.8345L183.821 90.7357C184.213 91.4484 183.937 92.3421 183.225 92.7348Z" fill="#5B6379"/>
<path d="M166.339 90.6732L157.054 95.696L158.844 87.9285L166.339 90.6732Z" fill="#474E61"/>
<path d="M174.015 86.5133L160.65 93.7562L163.234 82.5755L174.015 86.5133Z" fill="#2E3746"/>
<path d="M155.507 86.8474C156.6 86.9694 157.586 86.181 157.708 85.0864C157.83 83.9918 157.043 83.0056 155.949 82.8836C154.856 82.7615 153.871 83.5499 153.748 84.6445C153.626 85.7391 154.414 86.7254 155.507 86.8474Z" fill="#474E61"/>
<g filter="url(#filter2_d_3250_8613)">
<path d="M190.234 101.979L157.35 102.629C155.454 102.658 153.888 101.169 153.845 99.2609L153.262 67.7947C153.235 65.8975 154.725 64.3295 156.632 64.2842L189.515 63.6338C191.412 63.6049 192.978 65.094 193.021 67.002L193.62 98.479C193.647 100.376 192.13 101.95 190.234 101.979Z" fill="url(#paint1_linear_3250_8613)"/>
</g>
<path d="M188.327 97.302L159.415 97.8726C158.602 97.8951 157.936 97.2398 157.914 96.4268L157.434 70.4082C157.412 69.5951 158.068 68.9278 158.88 68.9053L187.792 68.3347C188.605 68.3122 189.271 68.9674 189.293 69.7805L189.774 95.7991C189.795 96.6121 189.14 97.2795 188.327 97.302Z" fill="#5B6379"/>
<path d="M174.267 87.7271L163.712 87.9327L168.865 81.8511L174.267 87.7271Z" fill="#354156"/>
<path d="M182.996 87.5503L167.797 87.858L175.221 79.1072L182.996 87.5503Z" fill="#2E3746"/>
<path d="M166.395 79.3598C167.31 79.9696 168.548 79.7209 169.158 78.8042C169.769 77.8875 169.521 76.65 168.606 76.0402C167.69 75.4304 166.453 75.6792 165.842 76.5958C165.232 77.5125 165.479 78.75 166.395 79.3598Z" fill="#354156"/>
<path d="M190.569 103.147L183.594 105.298L189.149 113.514L184.622 116.575L179.067 108.359L174.473 114.031L170.503 90.8159L190.569 103.147Z" fill="#8E96AB"/>
<g filter="url(#filter3_d_3250_8613)">
<path d="M52.3901 67.9505L70.09 87.7356C70.6849 88.4202 70.502 89.5239 69.7167 90.2262L47.2992 110.275C46.5138 110.978 45.3846 110.992 44.8167 110.339L22.4269 84.5725C21.832 83.8879 22.0149 82.7842 22.8002 82.0819L39.0422 67.5557L52.3901 67.9505Z" fill="#5C6479"/>
</g>
<path d="M38.2471 66.6953L43.3321 72.7015C44.0463 73.5451 45.36 73.5914 46.2036 72.8772L51.5349 68.3635" fill="#2E3746"/>
<g clip-path="url(#clip0_3250_8613)">
<path d="M33.4064 71.3169L32.11 72.4146L32.8645 73.3057L34.1609 72.2081L33.4064 71.3169Z" fill="#2E3746"/>
<path d="M35.4699 71.0996L34.1735 72.1973L34.928 73.0884L36.2244 71.9908L35.4699 71.0996Z" fill="#2E3746"/>
<path d="M34.9049 73.0869L33.6084 74.1846L34.3629 75.0757L35.6593 73.9781L34.9049 73.0869Z" fill="#2E3746"/>
<path d="M36.9683 72.8697L35.6719 73.9673L36.4264 74.8585L37.7228 73.7608L36.9683 72.8697Z" fill="#2E3746"/>
<path d="M36.4138 74.8692L35.1173 75.9668L35.8718 76.858L37.1683 75.7603L36.4138 74.8692Z" fill="#2E3746"/>
<path d="M38.4774 74.6519L37.1809 75.7495L37.9354 76.6407L39.2319 75.543L38.4774 74.6519Z" fill="#2E3746"/>
<path d="M37.9122 76.6387L36.6157 77.7363L37.3702 78.6275L38.6667 77.5299L37.9122 76.6387Z" fill="#2E3746"/>
<path d="M39.9757 76.4219L38.6792 77.5195L39.4337 78.4107L40.7301 77.3131L39.9757 76.4219Z" fill="#2E3746"/>
<path d="M39.4211 78.4209L38.1246 79.5186L38.8791 80.4097L40.1756 79.3121L39.4211 78.4209Z" fill="#2E3746"/>
<path d="M41.4847 78.2041L40.1882 79.3018L40.9427 80.1929L42.2392 79.0953L41.4847 78.2041Z" fill="#2E3746"/>
<path d="M40.9195 80.1909L39.623 81.2886L40.3775 82.1797L41.674 81.0821L40.9195 80.1909Z" fill="#2E3746"/>
<path d="M42.983 79.9737L41.6865 81.0713L42.441 81.9625L43.7375 80.8648L42.983 79.9737Z" fill="#2E3746"/>
<path d="M42.4285 81.9732L41.1321 83.0708L41.8866 83.962L43.183 82.8643L42.4285 81.9732Z" fill="#2E3746"/>
<path d="M44.4814 81.7437L43.1849 82.8413L43.9394 83.7325L45.2359 82.6348L44.4814 81.7437Z" fill="#2E3746"/>
<path d="M43.9268 83.7432L42.6304 84.8408L43.3849 85.732L44.6813 84.6344L43.9268 83.7432Z" fill="#2E3746"/>
<path d="M45.9904 83.5259L44.694 84.6235L45.4485 85.5147L46.7449 84.4171L45.9904 83.5259Z" fill="#2E3746"/>
<path d="M44.1394 86.623L47.6675 90.7902L50.273 88.5843L46.7449 84.4171L44.1394 86.623ZM49.5533 88.5255L47.7282 90.0707L46.7081 88.8658L48.5332 87.3206L49.5533 88.5255Z" fill="#2E3746"/>
<path d="M50.0259 99.7781L49.9615 97.6347C49.9697 97.2615 49.97 96.9811 49.9888 96.6204L49.9782 96.6078L48.5558 97.812L47.8864 97.0213L50.5422 94.7727L51.0523 95.3752L51.1139 97.4133C51.1183 97.7759 51.1247 98.1152 51.0847 98.4508L51.0953 98.4633L52.6561 97.1419L53.3362 97.9452L50.5041 100.343L50.0259 99.7781Z" fill="#2E3746"/>
<path d="M51.6652 92.2705C51.899 92.5466 51.8763 92.9537 51.549 93.2308C51.2343 93.4972 50.8291 93.4524 50.5953 93.1763C50.3383 92.8982 50.361 92.4912 50.6882 92.2141C51.0261 91.9496 51.4208 91.9818 51.6652 92.2705ZM54.1292 97.2738L51.3982 94.048L52.4051 93.1955L55.1362 96.4213L54.1292 97.2738Z" fill="#2E3746"/>
<path d="M54.1245 93.5929C53.7632 93.1662 53.4425 92.8128 53.1855 92.5348L54.054 91.7995L54.4869 92.2087L54.4995 92.1981C54.4517 91.6567 54.6573 91.1594 55.1356 90.7544C55.8405 90.1577 57.0031 90.2292 57.8745 91.2584C58.8734 92.4383 58.5984 93.6193 57.8683 94.2374C57.4781 94.5677 57.0379 94.6603 56.7168 94.5874L56.7042 94.598L58.0645 96.2046L57.0575 97.0572L54.1245 93.5929ZM55.7797 93.506C55.8435 93.5813 55.9198 93.646 55.9855 93.6981C56.2823 93.921 56.6914 93.9193 56.9809 93.6742C57.4215 93.3012 57.3651 92.7241 56.8975 92.1718C56.4618 91.6572 55.9058 91.4599 55.4527 91.8436C55.1632 92.0887 55.0921 92.5152 55.2842 92.8697C55.3141 92.9306 55.3546 93.004 55.4078 93.0667L55.7797 93.506Z" fill="#2E3746"/>
</g>
<defs>
<filter id="filter0_d_3250_8613" x="58.5027" y="9.69922" width="87.7764" height="95.1035" filterUnits="userSpaceOnUse" color-interpolation-filters="sRGB">
<feFlood flood-opacity="0" result="BackgroundImageFix"/>
<feColorMatrix in="SourceAlpha" type="matrix" values="0 0 0 0 0 0 0 0 0 0 0 0 0 0 0 0 0 0 127 0" result="hardAlpha"/>
<feOffset dy="11"/>
<feGaussianBlur stdDeviation="11"/>
<feColorMatrix type="matrix" values="0 0 0 0 0 0 0 0 0 0 0 0 0 0 0 0 0 0 0.27 0"/>
<feBlend mode="normal" in2="BackgroundImageFix" result="effect1_dropShadow_3250_8613"/>
<feBlend mode="normal" in="SourceGraphic" in2="effect1_dropShadow_3250_8613" result="shape"/>
</filter>
<filter id="filter1_d_3250_8613" x="116.12" y="50.8564" width="94.7551" height="94.2295" filterUnits="userSpaceOnUse" color-interpolation-filters="sRGB">
<feFlood flood-opacity="0" result="BackgroundImageFix"/>
<feColorMatrix in="SourceAlpha" type="matrix" values="0 0 0 0 0 0 0 0 0 0 0 0 0 0 0 0 0 0 127 0" result="hardAlpha"/>
<feOffset dy="11"/>
<feGaussianBlur stdDeviation="11"/>
<feColorMatrix type="matrix" values="0 0 0 0 0 0 0 0 0 0 0 0 0 0 0 0 0 0 0.27 0"/>
<feBlend mode="normal" in2="BackgroundImageFix" result="effect1_dropShadow_3250_8613"/>
<feBlend mode="normal" in="SourceGraphic" in2="effect1_dropShadow_3250_8613" result="shape"/>
</filter>
<filter id="filter2_d_3250_8613" x="131.261" y="52.6333" width="84.3594" height="82.9961" filterUnits="userSpaceOnUse" color-interpolation-filters="sRGB">
<feFlood flood-opacity="0" result="BackgroundImageFix"/>
<feColorMatrix in="SourceAlpha" type="matrix" values="0 0 0 0 0 0 0 0 0 0 0 0 0 0 0 0 0 0 127 0" result="hardAlpha"/>
<feOffset dy="11"/>
<feGaussianBlur stdDeviation="11"/>
<feColorMatrix type="matrix" values="0 0 0 0 0 0 0 0 0 0 0 0 0 0 0 0 0 0 0.27 0"/>
<feBlend mode="normal" in2="BackgroundImageFix" result="effect1_dropShadow_3250_8613"/>
<feBlend mode="normal" in="SourceGraphic" in2="effect1_dropShadow_3250_8613" result="shape"/>
</filter>
<filter id="filter3_d_3250_8613" x="0.0750732" y="56.5557" width="92.3667" height="87.2603" filterUnits="userSpaceOnUse" color-interpolation-filters="sRGB">
<feFlood flood-opacity="0" result="BackgroundImageFix"/>
<feColorMatrix in="SourceAlpha" type="matrix" values="0 0 0 0 0 0 0 0 0 0 0 0 0 0 0 0 0 0 127 0" result="hardAlpha"/>
<feOffset dy="11"/>
<feGaussianBlur stdDeviation="11"/>
<feColorMatrix type="matrix" values="0 0 0 0 0 0 0 0 0 0 0 0 0 0 0 0 0 0 0.27 0"/>
<feBlend mode="normal" in2="BackgroundImageFix" result="effect1_dropShadow_3250_8613"/>
<feBlend mode="normal" in="SourceGraphic" in2="effect1_dropShadow_3250_8613" result="shape"/>
</filter>
<linearGradient id="paint0_linear_3250_8613" x1="166.469" y1="60.1889" x2="160.562" y2="113.119" gradientUnits="userSpaceOnUse">
<stop stop-color="#68728B"/>
<stop offset="0.9964" stop-color="#646E87"/>
</linearGradient>
<linearGradient id="paint1_linear_3250_8613" x1="188.362" y1="60.6971" x2="158.839" y2="105.025" gradientUnits="userSpaceOnUse">
<stop stop-color="#68728B"/>
<stop offset="0.9964" stop-color="#646E87"/>
</linearGradient>
<clipPath id="clip0_3250_8613">
<rect width="11.4951" height="34.0431" fill="white" transform="translate(29.0514 75.0039) rotate(-40.2525)"/>
</clipPath>
</defs>
</svg>
