<svg width="21" height="21" viewBox="0 0 21 21" fill="none" xmlns="http://www.w3.org/2000/svg">
<path d="M10.4989 0.953186C9.14 0.953186 7.9611 1.60519 7.0301 2.57819C5.6759 2.54819 4.3581 2.90619 3.4051 3.85919C2.4522 4.81219 2.0934 6.13019 2.1239 7.48419C1.1506 8.41519 0.498901 9.59419 0.498901 10.9532C0.498901 12.3122 1.1506 13.4912 2.1239 14.4222C2.0934 15.7762 2.4522 17.0942 3.4051 18.0472C4.3582 19.0002 5.6759 19.3592 7.0301 19.3282C7.9611 20.3012 9.14 20.9532 10.4989 20.9532C11.8578 20.9532 13.0367 20.3012 13.9677 19.3282C15.3219 19.3582 16.6397 19.0002 17.5927 18.0472C18.5456 17.0942 18.9044 15.7762 18.8739 14.4222C19.8472 13.4912 20.4989 12.3122 20.4989 10.9532C20.4989 9.59419 19.8472 8.41519 18.8739 7.48419C18.9044 6.13019 18.5456 4.81219 17.5927 3.85919C16.6396 2.90619 15.3219 2.54719 13.9677 2.57819C13.0367 1.60519 11.8578 0.953186 10.4989 0.953186ZM13.4989 7.95319C13.7548 7.95319 14.0224 8.03919 14.2177 8.23419C14.6082 8.62519 14.6082 9.28118 14.2177 9.67218L10.2177 13.6722C9.8271 14.0622 9.1707 14.0622 8.7801 13.6722L6.7801 11.6722C6.3896 11.2812 6.3896 10.6252 6.7801 10.2342C7.1707 9.84419 7.8271 9.84419 8.2177 10.2342L9.4989 11.5152L12.7801 8.23419C12.9754 8.03919 13.243 7.95319 13.4989 7.95319Z" fill="white"/>
</svg>
